<svg width="296" height="31" viewBox="0 0 296 31" fill="none" xmlns="http://www.w3.org/2000/svg">
<path d="M10.8288 22.6632C9.43875 22.6632 8.0483 22.3923 6.72365 21.8486C4.04943 20.7519 1.96182 18.6781 0.845308 16.0098C-0.271206 13.3407 -0.281952 10.3981 0.814744 7.72388C1.91188 5.04965 3.9853 2.96205 6.65442 1.84633C8.58207 1.03951 10.6658 0.802921 12.6794 1.16511C12.861 1.19779 13.0033 1.34057 13.0351 1.5221C13.0673 1.70364 12.9826 1.88684 12.8231 1.97968C9.20348 4.08534 7.69562 8.5935 9.31579 12.466C10.9355 16.3385 15.2028 18.4304 19.2455 17.3319C19.4227 17.2837 19.6137 17.3509 19.7203 17.5023C19.827 17.6528 19.8287 17.8541 19.7242 18.0064C18.566 19.6949 16.9356 21.0126 15.0092 21.8177C13.6621 22.382 12.2454 22.6632 10.8288 22.6632ZM10.8261 1.88165C9.52683 1.88165 8.22622 2.14316 6.99406 2.65834C4.54215 3.68369 2.63731 5.60183 1.62967 8.0585C0.622375 10.5152 0.632328 13.2177 1.65803 15.6692C2.68338 18.1216 4.60108 20.026 7.05774 21.034C9.51441 22.0421 12.2174 22.0318 14.6693 21.0057C16.0735 20.4182 17.3058 19.5357 18.2855 18.4226C14.1958 18.9757 10.1341 16.7058 8.50289 12.8066C6.87154 8.90663 8.11198 4.42252 11.3724 1.89715C11.1904 1.88676 11.0081 1.88165 10.8261 1.88165Z" fill="#231F20"/>
<path d="M74.6569 9.62564C74.6569 9.40627 74.5697 9.19588 74.4146 9.04076C74.2595 8.88563 74.0491 8.79849 73.8297 8.79849C73.6103 8.79849 73.3999 8.88563 73.2448 9.04076C73.0897 9.19588 73.0025 9.40627 73.0025 9.62564H74.6569ZM59.2166 9.62564C59.2166 9.40627 59.1295 9.19588 58.9744 9.04076C58.8192 8.88563 58.6088 8.79849 58.3895 8.79849C58.1701 8.79849 57.9597 8.88563 57.8046 9.04076C57.6495 9.19588 57.5623 9.40627 57.5623 9.62564H59.2166ZM75.4509 12.4159C75.5266 12.4972 75.618 12.5624 75.7194 12.6076C75.8209 12.6528 75.9304 12.6771 76.0415 12.679C76.1526 12.681 76.2629 12.6606 76.3659 12.619C76.4689 12.5774 76.5624 12.5155 76.641 12.4369C76.7195 12.3584 76.7814 12.2648 76.823 12.1618C76.8646 12.0588 76.8851 11.9485 76.8831 11.8374C76.8811 11.7264 76.8568 11.6168 76.8116 11.5154C76.7664 11.4139 76.7012 11.3226 76.62 11.2469L75.4509 12.4159ZM66.1096 1.90553L66.6941 1.32101C66.539 1.16611 66.3288 1.0791 66.1096 1.0791C65.8904 1.0791 65.6802 1.16611 65.5251 1.32101L66.1096 1.90553ZM55.5992 11.2469C55.5179 11.3226 55.4528 11.4139 55.4075 11.5154C55.3623 11.6168 55.338 11.7264 55.3361 11.8374C55.3341 11.9485 55.3545 12.0588 55.3961 12.1618C55.4377 12.2648 55.4997 12.3584 55.5782 12.4369C55.6568 12.5155 55.7503 12.5774 55.8533 12.619C55.9563 12.6606 56.0666 12.681 56.1777 12.679C56.2887 12.6771 56.3983 12.6528 56.4997 12.6076C56.6012 12.5624 56.6925 12.4972 56.7682 12.4159L55.5992 11.2469ZM60.5952 22.5844H71.624V20.9301H60.5952V22.5844ZM74.6569 19.5515V9.62564H73.0025V19.5515H74.6569ZM59.2166 19.5515V9.62564H57.5623V19.5515H59.2166ZM76.62 11.2469L66.6941 1.32101L65.5251 2.49005L75.4509 12.4159L76.62 11.2469ZM65.5251 1.32101L55.5992 11.2469L56.7682 12.4159L66.6941 2.49005L65.5251 1.32101ZM71.624 22.5844C72.4283 22.5844 73.1998 22.2649 73.7685 21.6961C74.3373 21.1273 74.6569 20.3559 74.6569 19.5515H73.0025C73.0025 20.3125 72.3849 20.9301 71.624 20.9301V22.5844ZM60.5952 20.9301C59.8342 20.9301 59.2166 20.3125 59.2166 19.5515H57.5623C57.5623 20.3559 57.8819 21.1273 58.4506 21.6961C59.0194 22.2649 59.7908 22.5844 60.5952 22.5844V20.9301Z" fill="black"/>
<g filter="url(#filter0_d_1019_3953)">
<path d="M123.644 10.1483C122.751 10.1483 121.895 9.79365 121.263 9.1623C120.632 8.53095 120.277 7.67466 120.277 6.7818V2.29308H115.788C115.193 2.29308 114.622 2.52954 114.201 2.95044C113.781 3.37134 113.544 3.9422 113.544 4.53744V19.1258C113.544 19.721 113.781 20.2919 114.201 20.7128C114.622 21.1337 115.193 21.3701 115.788 21.3701H125.888C126.483 21.3701 127.054 21.1337 127.475 20.7128C127.896 20.2919 128.132 19.721 128.132 19.1258V10.1483H123.644ZM121.399 6.7818C121.399 7.37704 121.636 7.9479 122.057 8.3688C122.478 8.7897 123.048 9.02616 123.644 9.02616H127.672L121.399 2.75317V6.7818ZM115.788 1.1709H121.399L129.255 9.02616V19.1258C129.255 20.0186 128.9 20.8749 128.269 21.5063C127.637 22.1376 126.781 22.4923 125.888 22.4923H115.788C114.896 22.4923 114.039 22.1376 113.408 21.5063C112.777 20.8749 112.422 20.0186 112.422 19.1258V4.53744C112.422 3.64458 112.777 2.78828 113.408 2.15694C114.039 1.52559 114.896 1.1709 115.788 1.1709Z" fill="black"/>
</g>
<path d="M176.394 8.16678V2.05908H184.334V8.16678H176.394ZM164.789 11.8314V2.05908H172.729V11.8314H164.789ZM176.394 21.6037V11.8314H184.334V21.6037H176.394ZM164.789 21.6037V15.496H172.729V21.6037H164.789ZM166.011 10.6099H171.508V3.28062H166.011V10.6099ZM177.615 20.3822H183.112V13.0529H177.615V20.3822ZM177.615 6.94524H183.112V3.28062H177.615V6.94524ZM166.011 20.3822H171.508V16.7176H166.011V20.3822Z" fill="black"/>
<path d="M238.232 21.6039C237.691 20.0876 236.497 18.7483 234.837 17.7929C233.177 16.8375 231.142 16.3193 229.049 16.3193C226.957 16.3193 224.922 16.8375 223.262 17.7929C221.602 18.7483 220.408 20.0876 219.867 21.6039" stroke="black" stroke-width="1.18834" stroke-linecap="round"/>
<path d="M229.05 11.5658C231.675 11.5658 233.804 9.43765 233.804 6.81244C233.804 4.18723 231.675 2.05908 229.05 2.05908C226.425 2.05908 224.297 4.18723 224.297 6.81244C224.297 9.43765 226.425 11.5658 229.05 11.5658Z" stroke="black" stroke-width="1.18834" stroke-linecap="round"/>
<path d="M284.145 1.45703V10.2359M290.529 3.65335C292.232 4.98281 293.477 6.81069 294.092 8.88194C294.706 10.9532 294.658 13.1645 293.955 15.2073C293.252 17.2501 291.929 19.0225 290.17 20.2772C288.411 21.5319 286.305 22.2063 284.145 22.2063C281.984 22.2063 279.878 21.5319 278.119 20.2772C276.36 19.0225 275.037 17.2501 274.334 15.2073C273.631 13.1645 273.583 10.9532 274.198 8.88194C274.812 6.81069 276.057 4.98281 277.76 3.65335" stroke="#D11717" stroke-width="1.59616" stroke-linecap="round" stroke-linejoin="round"/>
<defs>
<filter id="filter0_d_1019_3953" x="108.422" y="1.1709" width="24.832" height="29.3213" filterUnits="userSpaceOnUse" color-interpolation-filters="sRGB">
<feFlood flood-opacity="0" result="BackgroundImageFix"/>
<feColorMatrix in="SourceAlpha" type="matrix" values="0 0 0 0 0 0 0 0 0 0 0 0 0 0 0 0 0 0 127 0" result="hardAlpha"/>
<feOffset dy="4"/>
<feGaussianBlur stdDeviation="2"/>
<feComposite in2="hardAlpha" operator="out"/>
<feColorMatrix type="matrix" values="0 0 0 0 0 0 0 0 0 0 0 0 0 0 0 0 0 0 0.25 0"/>
<feBlend mode="normal" in2="BackgroundImageFix" result="effect1_dropShadow_1019_3953"/>
<feBlend mode="normal" in="SourceGraphic" in2="effect1_dropShadow_1019_3953" result="shape"/>
</filter>
</defs>
</svg>
