<svg width="22" height="22" viewBox="0 0 22 22" fill="none" xmlns="http://www.w3.org/2000/svg">
<path d="M19.6569 8.62564C19.6569 8.40627 19.5697 8.19588 19.4146 8.04076C19.2595 7.88563 19.0491 7.79849 18.8297 7.79849C18.6103 7.79849 18.3999 7.88563 18.2448 8.04076C18.0897 8.19588 18.0025 8.40627 18.0025 8.62564H19.6569ZM4.21663 8.62564C4.21663 8.40627 4.12948 8.19588 3.97436 8.04076C3.81924 7.88563 3.60885 7.79849 3.38947 7.79849C3.1701 7.79849 2.95971 7.88563 2.80459 8.04076C2.64946 8.19588 2.56232 8.40627 2.56232 8.62564H4.21663ZM20.4509 11.4159C20.5266 11.4972 20.618 11.5624 20.7194 11.6076C20.8209 11.6528 20.9304 11.6771 21.0415 11.679C21.1526 11.681 21.2629 11.6606 21.3659 11.619C21.4689 11.5774 21.5624 11.5155 21.641 11.4369C21.7195 11.3584 21.7814 11.2648 21.823 11.1618C21.8646 11.0588 21.8851 10.9485 21.8831 10.8374C21.8811 10.7264 21.8568 10.6168 21.8116 10.5154C21.7664 10.4139 21.7012 10.3226 21.62 10.2469L20.4509 11.4159ZM11.1096 0.905529L11.6941 0.321006C11.539 0.166107 11.3288 0.0791016 11.1096 0.0791016C10.8904 0.0791016 10.6802 0.166107 10.5251 0.321006L11.1096 0.905529ZM0.599203 10.2469C0.517935 10.3226 0.452753 10.4139 0.407544 10.5154C0.362335 10.6168 0.338026 10.7264 0.336066 10.8374C0.334107 10.9485 0.354537 11.0588 0.396138 11.1618C0.43774 11.2648 0.49966 11.3584 0.578206 11.4369C0.656751 11.5155 0.750312 11.5774 0.853307 11.619C0.956303 11.6606 1.06662 11.681 1.17768 11.679C1.28875 11.6771 1.39828 11.6528 1.49974 11.6076C1.6012 11.5624 1.69252 11.4972 1.76825 11.4159L0.599203 10.2469ZM5.59522 21.5844H16.624V19.9301H5.59522V21.5844ZM19.6569 18.5515V8.62564H18.0025V18.5515H19.6569ZM4.21663 18.5515V8.62564H2.56232V18.5515H4.21663ZM21.62 10.2469L11.6941 0.321006L10.5251 1.49005L20.4509 11.4159L21.62 10.2469ZM10.5251 0.321006L0.599203 10.2469L1.76825 11.4159L11.6941 1.49005L10.5251 0.321006ZM16.624 21.5844C17.4283 21.5844 18.1998 21.2649 18.7685 20.6961C19.3373 20.1273 19.6569 19.3559 19.6569 18.5515H18.0025C18.0025 19.3125 17.3849 19.9301 16.624 19.9301V21.5844ZM5.59522 19.9301C4.83424 19.9301 4.21663 19.3125 4.21663 18.5515H2.56232C2.56232 19.3559 2.88185 20.1273 3.45063 20.6961C4.01941 21.2649 4.79084 21.5844 5.59522 21.5844V19.9301Z" fill="black"/>
</svg>
