<svg width="20" height="22" viewBox="0 0 20 22" fill="none" xmlns="http://www.w3.org/2000/svg">
<path d="M10.8288 21.6632C9.43875 21.6632 8.0483 21.3923 6.72365 20.8486C4.04943 19.7519 1.96182 17.6781 0.845308 15.0098C-0.271206 12.3407 -0.281952 9.3981 0.814744 6.72388C1.91188 4.04965 3.9853 1.96205 6.65442 0.846327C8.58207 0.0395062 10.6658 -0.197079 12.6794 0.16511C12.861 0.197788 13.0033 0.340567 13.0351 0.522101C13.0673 0.703636 12.9826 0.886844 12.8231 0.979681C9.20348 3.08534 7.69562 7.5935 9.31579 11.466C10.9355 15.3385 15.2028 17.4304 19.2455 16.3319C19.4227 16.2837 19.6137 16.3509 19.7203 16.5023C19.827 16.6528 19.8287 16.8541 19.7242 17.0064C18.566 18.6949 16.9356 20.0126 15.0092 20.8177C13.6621 21.382 12.2454 21.6632 10.8288 21.6632ZM10.8261 0.881648C9.52683 0.881648 8.22622 1.14316 6.99406 1.65834C4.54215 2.68369 2.63731 4.60183 1.62967 7.0585C0.622375 9.51516 0.632328 12.2177 1.65803 14.6692C2.68338 17.1216 4.60108 19.026 7.05774 20.034C9.51441 21.0421 12.2174 21.0318 14.6693 20.0057C16.0735 19.4182 17.3058 18.5357 18.2855 17.4226C14.1958 17.9757 10.1341 15.7058 8.50289 11.8066C6.87154 7.90663 8.11198 3.42252 11.3724 0.89715C11.1904 0.886757 11.0081 0.881648 10.8261 0.881648Z" fill="#231F20"/>
</svg>
